HIERARCHY
ROOT Hips
{
  OFFSET 0.0502701 92.146 0
  CHANNELS 6 Xposition Yposition Zposition Zrotation Xrotation Yrotation
  JOINT Bip01_Pelvis
  {
    OFFSET 0 0 0
    CHANNELS 6 Xposition Yposition Zposition Zrotation Xrotation Yrotation
    JOINT BN_Tai_01
    {
      OFFSET -4.6544 -2.06234 0
      CHANNELS 6 Xposition Yposition Zposition Zrotation Xrotation Yrotation
      JOINT BN_Tai_R_01
      {
        OFFSET 10.2279 -0.119812 3.68897
        CHANNELS 6 Xposition Yposition Zposition Zrotation Xrotation Yrotation
        JOINT BN_Tai_R_02
        {
          OFFSET 15.0421 0 1.52588e-005
          CHANNELS 6 Xposition Yposition Zposition Zrotation Xrotation Yrotation
          End Site
          {
            OFFSET 0 0 0
          }
        }
      }
      JOINT BN_Tai_L_01
      {
        OFFSET 10.2279 -0.119797 -3.68907
        CHANNELS 6 Xposition Yposition Zposition Zrotation Xrotation Yrotation
        JOINT BN_Tai_L_02
        {
          OFFSET 15.0421 0 0
          CHANNELS 6 Xposition Yposition Zposition Zrotation Xrotation Yrotation
          End Site
          {
            OFFSET 0 0 0
          }
        }
      }
    }
    JOINT Bip01_Spine
    {
      OFFSET 2.7319 1.49192 0
      CHANNELS 6 Xposition Yposition Zposition Zrotation Xrotation Yrotation
      JOINT Bip01_R_Thigh
      {
        OFFSET -2.85206 -1.24717 -6.20578
        CHANNELS 6 Xposition Yposition Zposition Zrotation Xrotation Yrotation
        JOINT Bip01_R_Calf
        {
          OFFSET 6.73247 0 0
          CHANNELS 6 Xposition Yposition Zposition Zrotation Xrotation Yrotation
          JOINT Bip01_R_HorseLink
          {
            OFFSET 8.08523 0 0
            CHANNELS 6 Xposition Yposition Zposition Zrotation Xrotation Yrotation
            JOINT Bip01_R_Foot
            {
              OFFSET 8.97518 0 0
              CHANNELS 6 Xposition Yposition Zposition Zrotation Xrotation Yrotation
              JOINT BN_Toe_R_30
              {
                OFFSET 1.58762 -0.234982 -0.295153
                CHANNELS 6 Xposition Yposition Zposition Zrotation Xrotation Yrotation
                JOINT BN_Toe_R_31
                {
                  OFFSET 3.03849 0 0
                  CHANNELS 6 Xposition Yposition Zposition Zrotation Xrotation Yrotation
                  End Site
                  {
                    OFFSET 0 0 0
                  }
                }
              }
              JOINT BN_Toe_R_00
              {
                OFFSET 1.65463 0.933666 1.02414
                CHANNELS 6 Xposition Yposition Zposition Zrotation Xrotation Yrotation
                JOINT BN_Toe_R_01
                {
                  OFFSET 3.51775 0 0
                  CHANNELS 6 Xposition Yposition Zposition Zrotation Xrotation Yrotation
                  End Site
                  {
                    OFFSET 0 0 0
                  }
                }
              }
              JOINT BN_Toe_R_20
              {
                OFFSET 1.47309 1.0106 -1.16708
                CHANNELS 6 Xposition Yposition Zposition Zrotation Xrotation Yrotation
                JOINT BN_Toe_R_21
                {
                  OFFSET 3.94896 0 0
                  CHANNELS 6 Xposition Yposition Zposition Zrotation Xrotation Yrotation
                  End Site
                  {
                    OFFSET 0 0 0
                  }
                }
              }
              JOINT BN_Toe_R_10
              {
                OFFSET 1.07522 1.64225 0.0223596
                CHANNELS 6 Xposition Yposition Zposition Zrotation Xrotation Yrotation
                JOINT BN_Toe_R_11
                {
                  OFFSET 4.09655 0 0
                  CHANNELS 6 Xposition Yposition Zposition Zrotation Xrotation Yrotation
                  End Site
                  {
                    OFFSET 0 0 0
                  }
                }
              }
              JOINT Bip01_R_Toe0
              {
                OFFSET 2.04238 1.88275 0
                CHANNELS 6 Xposition Yposition Zposition Zrotation Xrotation Yrotation
                End Site
                {
                  OFFSET 0 0 0
                }
              }
            }
          }
        }
      }
      JOINT Bip01_L_Thigh
      {
        OFFSET -2.85154 -1.24849 6.20577
        CHANNELS 6 Xposition Yposition Zposition Zrotation Xrotation Yrotation
        JOINT Bip01_L_Calf
        {
          OFFSET 6.73247 0 0
          CHANNELS 6 Xposition Yposition Zposition Zrotation Xrotation Yrotation
          JOINT Bip01_L_HorseLink
          {
            OFFSET 8.08524 0 0
            CHANNELS 6 Xposition Yposition Zposition Zrotation Xrotation Yrotation
            JOINT Bip01_L_Foot
            {
              OFFSET 8.97521 0 0
              CHANNELS 6 Xposition Yposition Zposition Zrotation Xrotation Yrotation
              JOINT BN_Toe_L_00
              {
                OFFSET 1.65461 0.933701 -1.02419
                CHANNELS 6 Xposition Yposition Zposition Zrotation Xrotation Yrotation
                JOINT BN_Toe_L_01
                {
                  OFFSET 3.51778 0 0
                  CHANNELS 6 Xposition Yposition Zposition Zrotation Xrotation Yrotation
                  End Site
                  {
                    OFFSET 0 0 0
                  }
                }
              }
              JOINT BN_Toe_L_10
              {
                OFFSET 1.07523 1.6422 -0.0221281
                CHANNELS 6 Xposition Yposition Zposition Zrotation Xrotation Yrotation
                JOINT BN_Toe_L_11
                {
                  OFFSET 4.09657 0 0
                  CHANNELS 6 Xposition Yposition Zposition Zrotation Xrotation Yrotation
                  End Site
                  {
                    OFFSET 0 0 0
                  }
                }
              }
              JOINT BN_Toe_L_30
              {
                OFFSET 1.58761 -0.234954 0.295135
                CHANNELS 6 Xposition Yposition Zposition Zrotation Xrotation Yrotation
                JOINT BN_Toe_L_31
                {
                  OFFSET 3.03847 0 0
                  CHANNELS 6 Xposition Yposition Zposition Zrotation Xrotation Yrotation
                  End Site
                  {
                    OFFSET 0 0 0
                  }
                }
              }
              JOINT BN_Toe_L_20
              {
                OFFSET 1.4731 1.01055 1.1673
                CHANNELS 6 Xposition Yposition Zposition Zrotation Xrotation Yrotation
                JOINT BN_Toe_L_21
                {
                  OFFSET 3.94897 0 0
                  CHANNELS 6 Xposition Yposition Zposition Zrotation Xrotation Yrotation
                  End Site
                  {
                    OFFSET 0 0 0
                  }
                }
              }
              JOINT Bip01_L_Toe0
              {
                OFFSET 2.04238 1.88276 0
                CHANNELS 6 Xposition Yposition Zposition Zrotation Xrotation Yrotation
                End Site
                {
                  OFFSET 0 0 0
                }
              }
            }
          }
        }
      }
      JOINT Bip01_Spine1
      {
        OFFSET 8.6167 -0.00679016 0
        CHANNELS 6 Xposition Yposition Zposition Zrotation Xrotation Yrotation
        JOINT BN_Wing_R_01
        {
          OFFSET 0.267445 -6.12421 -7.49305
          CHANNELS 6 Xposition Yposition Zposition Zrotation Xrotation Yrotation
          JOINT BN_Wing_R_02
          {
            OFFSET 14.7158 0 0
            CHANNELS 6 Xposition Yposition Zposition Zrotation Xrotation Yrotation
            JOINT BN_Wing_R_03
            {
              OFFSET 19.0858 0 0
              CHANNELS 6 Xposition Yposition Zposition Zrotation Xrotation Yrotation
              JOINT BN_Wing_R_05
              {
                OFFSET 2.68908 -0.270637 0.785261
                CHANNELS 6 Xposition Yposition Zposition Zrotation Xrotation Yrotation
                JOINT BN_Wing_R_06
                {
                  OFFSET 21.1083 0 0
                  CHANNELS 6 Xposition Yposition Zposition Zrotation Xrotation Yrotation
                  End Site
                  {
                    OFFSET 0 0 0
                  }
                }
              }
              JOINT BN_Wing_R_04
              {
                OFFSET 27.642 0 0
                CHANNELS 6 Xposition Yposition Zposition Zrotation Xrotation Yrotation
                End Site
                {
                  OFFSET 0 0 0
                }
              }
            }
          }
        }
        JOINT BN_Wing_L_01
        {
          OFFSET 0.267452 -6.12421 7.49305
          CHANNELS 6 Xposition Yposition Zposition Zrotation Xrotation Yrotation
          JOINT BN_Wing_L_02
          {
            OFFSET 14.7158 0 0
            CHANNELS 6 Xposition Yposition Zposition Zrotation Xrotation Yrotation
            JOINT BN_Wing_L_03
            {
              OFFSET 19.0858 0 0
              CHANNELS 6 Xposition Yposition Zposition Zrotation Xrotation Yrotation
              JOINT BN_Wing_L_05
              {
                OFFSET 2.68908 -0.270635 -0.785254
                CHANNELS 6 Xposition Yposition Zposition Zrotation Xrotation Yrotation
                JOINT BN_Wing_L_06
                {
                  OFFSET 21.1083 0 0
                  CHANNELS 6 Xposition Yposition Zposition Zrotation Xrotation Yrotation
                  End Site
                  {
                    OFFSET 0 0 0
                  }
                }
              }
              JOINT BN_Wing_L_04
              {
                OFFSET 27.642 0 1.14441e-005
                CHANNELS 6 Xposition Yposition Zposition Zrotation Xrotation Yrotation
                End Site
                {
                  OFFSET 0 0 0
                }
              }
            }
          }
        }
        JOINT Bip01_Neck
        {
          OFFSET 7.59958 -1.43237 0
          CHANNELS 6 Xposition Yposition Zposition Zrotation Xrotation Yrotation
          JOINT Bip01_Neck1
          {
            OFFSET 3.64749 -0.00262451 0
            CHANNELS 6 Xposition Yposition Zposition Zrotation Xrotation Yrotation
            JOINT Bip01_Neck2
            {
              OFFSET 3.32331 -0.00284576 0
              CHANNELS 6 Xposition Yposition Zposition Zrotation Xrotation Yrotation
              JOINT Bip01_Head
              {
                OFFSET 4.63256 -0.573471 0
                CHANNELS 6 Xposition Yposition Zposition Zrotation Xrotation Yrotation
                JOINT BN_Jaw
                {
                  OFFSET 1.05386 2.23561 0
                  CHANNELS 6 Xposition Yposition Zposition Zrotation Xrotation Yrotation
                  End Site
                  {
                    OFFSET 0 0 0
                  }
                }
              }
            }
          }
        }
      }
    }
  }
}
MOTION
Frames:	4
Frame Time:	0.0333333
0.0502691 76.2508 0.0459334 25.1729 -87.064 59.8063 0 -2.38419e-007 0 -90.9394 5.89972 -89.0639 -4.6544 -2.06234 -2.38419e-007 -19.0001 2.01291 176.537 10.2279 -0.119791 3.68907 36.5625 81.5018 -55.7833 15.0421 -4.76837e-007 0 4.22926 -4.97869 -5.01607 10.2279 -0.119789 -3.68898 -133.972 78.6246 114.888 15.0421 9.53675e-007 0 -4.66748 4.99965 0.000686922 3.08739 0.432591 0.0515547 22.3001 4.41817 1.55807 -3.8147e-006 7.10543e-015 -6.20578 -90.1013 -2.41463 -178.252 6.73248 -7.62939e-006 8.88178e-016 -79.2206 -2.25044e-006 -1.63464e-005 8.08524 3.8147e-006 -1.43051e-006 73.2457 8.228e-006 2.35015e-006 8.9752 -3.8147e-006 8.88179e-016 -80.4345 0.598802 -3.28646 1.58764 -0.234974 -0.295146 -156.631 -4.8915 -175.849 3.03847 1.90735e-006 0 -17.1016 -1.0543e-007 4.44793e-009 1.65461 0.933674 1.02415 62.1476 34.1323 -24.3101 3.51774 0 -9.53674e-007 2.76652 1.07085e-005 9.27658e-006 1.47311 1.01062 -1.16706 66.0946 -49.3208 19.0247 3.94898 0 2.38419e-007 -24.1264 9.43895e-006 4.85806e-006 1.07523 1.64227 0.022377 36.0897 -5.51654 -3.00413 4.09656 -8.88178e-016 0 20.7251 8.99559e-006 -3.7998e-006 2.04237 1.88277 0 69.9963 0.000929904 -9.99889 -3.8147e-006 0 6.20577 -90.4509 2.89256 171.645 6.73247 -3.8147e-006 -8.88178e-016 -82.2733 7.4132e-008 -1.63195e-007 8.08521 7.62939e-006 0.000685692 74.3785 2.82072e-006 -9.58419e-006 8.97521 0 0.000779152 -72.335 -5.69976 5.71355 1.6547 0.93378 -1.02398 46.219 -43.8149 25.9051 3.51775 0 -0.000616073 -2.37125 -0.000150216 0.00699343 1.0752 1.64221 -0.0219278 30.6758 5.21033 3.48988 4.09656 -8.88177e-016 -0.00119591 -13.5375 -0.00165053 0.0138919 1.5876 -0.234958 0.295259 -171.662 5.80044 177.263 3.03848 1.90735e-006 0 -18.9003 0.000586377 -0.00345536 1.47299 1.0105 1.16749 23.1595 52.7971 -12.2969 3.94897 0 0 0.108399 5.79967e-006 9.85867e-006 2.04237 1.88278 1.77636e-015 74.9988 -0.00213176 -0.0027757 8.61703 -0.00682068 9.53674e-007 -5.47976 -3.04698 -1.01447 0.267448 -6.12423 -7.49305 -35.8197 7.83593 37.0106 14.7158 1.90735e-006 3.8147e-006 51.2086 0.932892 8.32598 19.0859 7.62939e-006 -1.52588e-005 -29.7642 27.7467 -23.5758 2.68908 -0.270641 0.785282 -43.932 3.23079 -0.296051 21.1083 -7.62939e-006 5.72204e-006 -2.17302 0.0018229 -23.8733 27.642 4.76837e-007 7.62939e-006 12.0007 -3.33926 -30.3863 0.267448 -6.12423 7.49305 -35.8198 -7.83594 -37.0107 14.7158 1.77636e-015 -3.8147e-006 51.2086 -0.932891 -8.32597 19.0859 0 -3.8147e-006 -29.7643 -27.7467 23.5759 2.68908 -0.27064 -0.785295 -43.932 -3.23081 0.29606 21.1083 1.52588e-005 -7.62939e-006 -2.17301 -0.00181708 23.8733 27.642 4.76837e-006 -5.72204e-006 12.0007 3.33926 30.3863 7.60077 -1.43196 0 32.3621 -6.04413 -2.84727 3.64931 -0.0022049 0 33.723 3.67755 4.93848 3.32466 -0.00263214 8.89301e-005 22.5856 -1.82457 -6.19827 4.63256 -0.573479 8.88178e-016 -3.82165 5.75252 -3.72212 1.0539 2.23561 1.90735e-006 -98.9175 -0.0393982 -179.966 
0.0502692 76.393 0.028829 23.1077 -87.1205 57.8818 -7.10543e-015 -2.38419e-007 7.10543e-015 -90.9393 5.85319 -89.0646 -4.6544 -2.06234 -2.38419e-007 -19.029 2.01466 176.538 10.2279 -0.119791 3.68907 36.5114 81.5015 -55.6829 15.0421 -4.76837e-007 -7.10542e-015 4.17083 -4.973 -6.44215 10.2279 -0.119789 -3.68898 -133.989 78.625 114.956 15.0421 9.53675e-007 0 -4.59942 5.00452 -1.51255 3.08508 0.447311 0.0515547 22.2297 4.0968 1.33335 -3.8226e-006 1.83498e-009 -6.20578 -89.105 -2.10678 -178.455 6.73248 -7.62939e-006 3.55271e-015 -78.5068 -2.48062e-006 -1.63368e-005 8.08524 3.8147e-006 -1.43051e-006 73.0398 -1.30049e-006 -5.6027e-007 8.9752 -3.8147e-006 3.55271e-015 -80.0718 0.664141 -2.94304 1.58764 -0.234974 -0.295146 -156.74 -4.9053 -175.852 3.03847 1.90735e-006 -1.33227e-015 -17.6761 -7.03352e-008 1.93883e-009 1.65461 0.933674 1.02415 62.1912 34.116 -24.3346 3.51774 7.10543e-015 -9.53674e-007 2.22792 1.05869e-005 9.37486e-006 1.47311 1.01062 -1.16706 66.1786 -49.3001 19.089 3.94898 -3.55271e-015 2.38419e-007 -24.4475 5.83807e-006 1.27211e-005 1.07523 1.64227 0.022377 36.1294 -5.51715 -2.99833 4.09656 -8.88178e-016 -1.33227e-015 20.1458 -0.000166245 -0.000481619 2.04237 1.88277 2.77619e-010 70.1901 0.0133723 -9.98205 -3.8068e-006 -1.83536e-009 6.20577 -89.3461 3.06258 171.451 6.73247 -3.8147e-006 -8.88178e-016 -81.5235 4.33401e-008 -2.13858e-007 8.08521 7.62939e-006 0.000685692 74.6443 2.84823e-006 -9.61675e-006 8.97521 -7.10542e-014 0.000779152 -72.7709 -5.43221 6.04293 1.6547 0.93378 -1.02398 46.4417 -43.7263 26.0695 3.51775 -1.40687e-012 -0.000616073 -3.20854 0.000537632 -0.0071011 1.0752 1.64221 -0.0219278 30.7135 5.21262 3.48646 4.09656 1.06848e-012 -0.00119591 -13.9001 0.000930037 0.00309849 1.5876 -0.234958 0.295259 -171.814 5.78565 177.223 3.03848 1.90735e-006 -3.55271e-015 -19.3998 -0.000754513 0.000443117 1.47299 1.0105 1.16749 23.1947 52.7925 -12.325 3.94897 0 -1.06581e-014 -0.177737 5.74722e-006 9.85956e-006 2.04237 1.88278 1.41007e-010 75.1681 -0.0150282 -0.00618231 8.61703 -0.00682068 9.53676e-007 -4.91971 -3.12573 -1.09807 0.267448 -6.12423 -7.49305 -37.244 9.01247 43.1735 14.7158 1.90735e-006 3.8147e-006 51.2086 0.932891 8.32598 19.0859 7.62939e-006 -1.52588e-005 -28.5523 27.6331 -24.1659 2.68908 -0.270641 0.785282 -43.932 3.24464 -1.19195 21.1083 -7.62939e-006 5.72204e-006 -2.17361 0.000831658 -25.2452 27.642 4.76837e-007 7.62939e-006 11.5279 -3.015 -32.9235 0.267448 -6.12423 7.49305 -37.244 -9.01249 -43.1735 14.7158 3.55271e-015 -3.8147e-006 51.2086 -0.932892 -8.32597 19.0859 -2.84217e-014 -3.8147e-006 -28.5523 -27.6331 24.1659 2.68908 -0.27064 -0.785295 -43.9865 -3.24408 0.116949 21.1083 1.52588e-005 -7.62939e-006 -2.17281 -0.001401 24.9356 27.642 4.76837e-006 -5.72204e-006 11.5279 3.015 32.9235 7.60077 -1.43196 4.52584e-010 32.2561 -5.89699 -2.76526 3.64931 -0.0022049 4.35207e-014 33.9905 3.48842 4.89095 3.32466 -0.00263214 8.89301e-005 22.9096 -1.42542 -5.74193 4.63256 -0.573479 5.79113e-010 -4.50679 5.58168 -3.9805 1.0539 2.23561 1.90601e-006 -98.9175 -0.0393982 -179.966 
0.0502692 76.6387 0.00522983 20.5582 -87.1846 55.5169 7.10543e-015 -2.38419e-007 0 -90.94 6.18857 -89.0591 -4.6544 -2.06234 -2.38419e-007 -19.1132 2.01974 176.541 10.2279 -0.119791 3.68907 36.3401 81.4968 -55.3598 15.0421 -4.76837e-007 -7.10542e-015 4.11368 -4.966 -7.84051 10.2279 -0.119789 -3.68898 -134.07 78.6275 115.188 15.0421 9.53675e-007 0 -4.53259 5.00753 -2.9964 3.08281 0.461745 0.0515547 22.1023 3.55737 0.952043 -3.83597e-006 4.73294e-009 -6.20578 -87.9987 -1.74085 -178.622 6.73248 -7.62939e-006 1.68754e-014 -77.753 -2.73879e-006 -1.63438e-005 8.08524 3.8147e-006 -1.43051e-006 72.9062 -1.20782e-006 -5.93524e-007 8.9752 -3.8147e-006 1.15463e-014 -79.7697 0.804315 -2.52769 1.58764 -0.234974 -0.295146 -156.952 -4.93372 -175.867 3.03847 1.90735e-006 1.77636e-015 -18.2394 -1.41845e-008 -1.79905e-009 1.65461 0.933674 1.02415 62.234 34.1 -24.3585 3.51774 0 -9.53674e-007 1.69975 1.01698e-005 -5.13387e-007 1.47311 1.01062 -1.16706 66.4202 -49.2427 19.2729 3.94898 7.10543e-015 2.38419e-007 -24.7624 9.76312e-006 4.00977e-006 1.07523 1.64227 0.022377 36.4041 -5.53128 -2.97171 4.09656 5.32907e-015 2.66454e-015 19.5777 -0.000317026 -0.000920822 2.04237 1.88277 8.76716e-010 70.3801 0.0256886 -9.96572 -3.79343e-006 -4.73301e-009 6.20577 -87.9915 3.31805 171.321 6.73247 -3.8147e-006 0 -80.6213 -1.6986e-009 -2.83382e-007 8.08521 7.62939e-006 0.000685692 74.8621 2.90373e-006 -9.6558e-006 8.97521 -3.62377e-013 0.000779152 -73.1757 -4.99224 6.66882 1.6547 0.93378 -1.02398 46.6593 -43.6389 26.2301 3.51775 -3.2756e-012 -0.000616073 -4.02957 0.00161277 -0.02091 1.0752 1.64221 -0.0219278 30.8252 5.21939 3.47631 4.09656 2.82618e-012 -0.00119591 -14.2556 0.00359199 -0.00744887 1.5876 -0.234958 0.295259 -172.148 5.8436 177.257 3.03848 1.90735e-006 -3.55271e-015 -19.8896 -0.00212956 0.00422705 1.47299 1.0105 1.16749 23.2844 52.7806 -12.3964 3.94897 -3.55271e-015 -3.55271e-015 -0.468622 5.75901e-006 1.84134e-006 2.04237 1.88278 2.92374e-010 75.3342 -0.0277062 -0.00945204 8.61703 -0.00682068 9.53679e-007 -4.28476 -3.2292 -1.16415 0.267448 -6.12423 -7.49305 -38.995 10.0757 50.166 14.7158 1.90735e-006 3.8147e-006 51.2086 0.932888 8.32598 19.0859 7.62939e-006 -1.52588e-005 -27.2967 27.4939 -24.7417 2.68908 -0.270641 0.785282 -43.9333 3.2548 -2.3088 21.1083 -7.62939e-006 5.72204e-006 -2.17422 -0.000127352 -26.5904 27.642 4.76837e-007 7.62939e-006 10.5998 -2.33447 -34.9231 0.267448 -6.12423 7.49305 -38.995 -10.0757 -50.1661 14.7158 -1.42109e-014 -3.8147e-006 51.2086 -0.932894 -8.32597 19.0859 -1.42108e-014 -3.8147e-006 -27.3006 -27.4947 24.7409 2.68908 -0.27064 -0.785295 -44.014 -3.25499 0.623704 21.1083 1.52588e-005 -7.62939e-006 -2.17262 -0.000990679 25.9771 27.642 4.76837e-006 -5.72204e-006 10.5998 2.33446 34.9231 7.60077 -1.43196 1.15206e-009 32.0956 -5.62514 -2.69506 3.64931 -0.0022049 1.11022e-013 34.3973 3.28842 4.83301 3.32466 -0.00263214 8.89301e-005 23.1813 -0.985945 -5.18703 4.63256 -0.573479 1.35114e-009 -5.3482 5.46924 -4.45655 1.0539 2.23561 1.90448e-006 -98.9175 -0.0393829 -179.966 
0.0502693 76.9843 -0.0245695 17.5915 -87.2568 52.7882 -7.10543e-015 -2.38419e-007 0 -90.9408 6.66506 -89.0512 -4.6544 -2.06234 -2.38419e-007 -19.2548 2.02829 176.546 10.2279 -0.119791 3.68907 36.0958 81.4883 -54.8667 15.0421 -4.76837e-007 0 4.05619 -4.95753 -9.25271 10.2279 -0.119789 -3.68898 -134.203 78.6316 115.565 15.0421 9.53675e-007 -7.10543e-015 -4.46503 5.00883 -4.49496 3.08052 0.476324 0.0515547 21.9452 2.86185 0.446337 -3.85353e-006 8.27272e-009 -6.20578 -86.7679 -1.31348 -178.763 6.73248 -7.62939e-006 1.59872e-014 -76.9422 -3.02818e-006 -1.63624e-005 8.08524 3.8147e-006 -1.43051e-006 72.8367 -1.09357e-006 -6.35931e-007 8.9752 -3.8147e-006 1.33227e-014 -79.5167 1.01762 -2.03792 1.58764 -0.234974 -0.295146 -157.268 -4.93813 -175.904 3.03847 1.90735e-006 1.77636e-015 -18.8083 5.90298e-008 -5.97243e-009 1.65461 0.933674 1.02415 62.2771 34.0838 -24.3827 3.51774 3.55271e-015 -9.53674e-007 1.16637 1.0138e-005 -4.50543e-007 1.47311 1.01062 -1.16706 66.7944 -49.1452 19.5598 3.94898 7.10543e-015 2.38419e-007 -25.0803 5.63574e-006 1.27254e-005 1.07523 1.64227 0.022377 36.7744 -5.54747 -2.93221 4.09656 5.32907e-015 -2.22045e-015 19.004 -0.000476748 -0.00141473 2.04237 1.88277 1.74141e-009 70.572 0.0382726 -9.94942 -3.77587e-006 -8.27277e-009 6.20577 -86.4104 3.70904 171.177 6.73247 -3.8147e-006 0 -79.5933 -6.33493e-008 -3.75686e-007 8.08521 7.6294e-006 0.000685692 75.0473 2.9844e-006 -9.70241e-006 8.97521 -7.95808e-013 0.000779152 -73.5583 -4.40303 7.5516 1.6547 0.93378 -1.02398 46.8784 -43.5501 26.3915 3.51775 -5.61684e-012 -0.000616073 -5.05898 0.00291096 -0.0313006 1.0752 1.64221 -0.0219278 31.0037 5.23016 3.46006 4.09656 4.996e-012 -0.00119591 -14.6147 0.00640974 -0.0180538 1.5876 -0.234958 0.295259 -172.661 5.83332 177.317 3.03848 1.90735e-006 1.77636e-015 -20.3842 -0.00358217 0.0080199 1.47299 1.0105 1.16749 23.4157 52.763 -12.5009 3.94897 -8.88178e-015 0 -0.77288 5.7711e-006 -1.33373e-007 2.04237 1.88278 4.96227e-010 75.7367 -0.0607111 -0.0176308 8.61703 -0.00682068 9.53683e-007 -3.60841 -3.33874 -1.21833 0.267448 -6.12423 -7.49305 -41.4295 10.1329 58.2043 14.7158 1.90735e-006 3.8147e-006 51.2086 0.932885 8.32598 19.0859 7.62939e-006 -1.52588e-005 -25.9979 27.2978 -25.2944 2.68908 -0.270641 0.785282 -43.9326 3.26009 -3.60145 21.1083 -7.62939e-006 5.72204e-006 -2.1736 0.000205883 -27.2483 27.642 4.76837e-007 7.62939e-006 9.21973 -1.33796 -36.3286 0.267449 -6.12423 7.49305 -41.4295 -10.1329 -58.2043 14.7158 1.77636e-015 -3.8147e-006 51.2086 -0.932895 -8.32597 19.0859 -2.84217e-014 -3.8147e-006 -25.9979 -27.2978 25.2944 2.68908 -0.27064 -0.785295 -44.0263 -3.2618 1.66611 21.1083 1.52588e-005 -7.62939e-006 -2.17243 -0.000572342 27.029 27.642 4.76837e-006 -5.72204e-006 9.21973 1.33796 36.3286 7.60077 -1.43196 2.06405e-009 31.8794 -5.23613 -2.63643 3.64931 -0.0022049 1.85629e-013 34.9264 3.08591 4.74506 3.32466 -0.00263214 8.89301e-005 23.411 -0.491148 -4.52456 4.63256 -0.573479 2.25269e-009 -6.19871 5.36281 -4.93883 1.0539 2.23561 1.90223e-006 -98.9175 -0.0393982 -179.966 
